<svg xmlns="http://www.w3.org/2000/svg" xmlns:xlink="http://www.w3.org/1999/xlink" version="1.1" height="160px">
    <style>
    .nv-point-paths path {
        stroke: #aaa;
        stroke-opacity: 1;
        fill: #000;
        fill-opacity: 0.5;
    }
    .nv-groups .nv-point {
        fill-opacity: 0;
        stroke-opacity: 0;
    }
    .nv-groups path.nv-line {
        fill: none;
        stroke-width: 1.5px;
    }

    </style>
    <g class="nvd3 nv-wrap nv-lineChart" transform="translate(80,30)">
        <g>
            <rect width="538" height="110" style="opacity: 0;"></rect>
            <g class="nv-x nv-axis" transform="translate(0,110)">
                <g class="nvd3 nv-wrap nv-axis">
                    <g>
                        <g class="tick" transform="translate(179.33333333333334,0)" style="opacity: 1;">
                            <line y2="-110" x2="0"></line>
                            <text y="7" dy=".71em" style="text-anchor: middle;" x="0">60 days ago</text>
                        </g>
                        <g class="tick" transform="translate(358.6666666666667,0)" style="opacity: 1;">
                            <line y2="-110" x2="0"></line>
                            <text y="7" dy=".71em" style="text-anchor: middle;" x="0">30 days ago</text>
                        </g>
                        <g class="tick" transform="translate(538,0)" style="opacity: 1;">
                            <line y2="-110" x2="0"></line>
                        </g>
                        <path class="domain" d="M0,0V0H538V0"></path>
                        <text class="nv-axislabel" text-anchor="middle" y="36" x="269">Days</text>
                    </g>
                    <g class="nv-axisMaxMin" transform="translate(0,0)">
                        <text dy=".71em" y="7" transform="rotate(0 0,0)" style="text-anchor: middle;">90 days ago</text>
                    </g>
                    <g class="nv-axisMaxMin" transform="translate(538,0)">
                        <text dy=".71em" y="7" transform="rotate(0 0,0)" style="text-anchor: middle;">now</text>
                    </g>
                </g>
            </g>
            <g class="nv-y nv-axis">
                <g class="nvd3 nv-wrap nv-axis">
                    <g>
                        <g class="tick" transform="translate(0,1.4210854715202004e-14)" opacity="0" style="opacity: 1;">
                            <line x2="538" y2="0"></line>
                            <text x="-3" dy=".32em" opacity="0" style="text-anchor: end;" y="0">#10</text>
                        </g>
                        <g class="tick" transform="translate(0,110)" opacity="0" style="opacity: 1;">
                            <line x2="538" y2="0"></line>
                            <text x="-3" dy=".32em" opacity="0" style="text-anchor: end;" y="0">#25</text>
                        </g>
                        <path class="domain" d="M0,0H0V110H0"></path>
                        <text class="nv-axislabel" transform="rotate(-90)" y="-63" x="-55" style="text-anchor: middle;">Rank</text>
                    </g>
                    <g class="nv-axisMaxMin" transform="translate(0,110)">
                        <text dy=".32em" y="0" x="-3" text-anchor="end" style="opacity: 1;">#25</text>
                    </g>
                    <g class="nv-axisMaxMin" transform="translate(0,0)">
                        <text dy=".32em" y="0" x="-3" text-anchor="end" style="opacity: 1;">#10</text>
                    </g>
                </g>
            </g>
            <g class="nv-linesWrap">
                <g class="nvd3 nv-wrap nv-line" transform="translate(0,0)">
                    <defs>
                        <clipPath id="nv-edge-clip-76608">
                            <rect width="538" height="110"></rect>
                        </clipPath>
                    </defs>
                    <g clip-path="">
                        <g class="nv-groups">
                            <g class="nv-group nv-series-0" style="stroke-opacity: 1; fill-opacity: 0.5; fill: rgb(255, 127, 14); stroke: rgb(255, 127, 14);">
                                <path class="nv-line" d="M5.977777777777778,77.0540670367277L6.974074074074073,77.05406703672769C7.97037037037037,77.0540670367277,9.962962962962962,77.0540670367277,11.955555555555556,77.05406703672769C13.948148148148148,77.0540670367277,15.94074074074074,77.0540670367277,17.933333333333334,75.97227895847482C19.925925925925924,74.89049088022193,21.918518518518518,72.72691472371619,23.91111111111111,72.72691472371618C25.9037037037037,72.72691472371619,27.896296296296292,74.89049088022193,29.888888888888886,76.99856573739741C31.88148148148148,79.1066405945729,33.87407407407407,81.15921415241809,35.86666666666667,80.0774260741652C37.85925925925926,78.99563799591232,39.851851851851855,74.77948828156138,41.84444444444444,73.75320150263877C43.837037037037035,72.72691472371619,45.82962962962963,74.89049088022193,47.82222222222222,74.89049088022195C49.81481481481481,74.89049088022193,51.80740740740741,72.72691472371619,53.8,71.64512664546331C55.79259259259259,70.56333856721042,57.785185185185185,70.56333856721042,59.77777777777777,72.6714134243859C61.770370370370365,74.77948828156138,63.76296296296296,78.99563799591232,65.75555555555556,82.07991648801566C67.74814814814815,85.16419498011898,69.74074074074073,87.11660224997469,71.73333333333333,87.11660224997469C73.72592592592594,87.11660224997469,75.71851851851852,85.16419498011898,77.71111111111111,83.16170456626853C79.70370370370371,81.15921415241809,81.69629629629631,79.1066405945729,83.6888888888889,78.08035381565028C85.68148148148148,77.0540670367277,87.67407407407407,77.0540670367277,89.66666666666667,77.05406703672769C91.65925925925926,77.0540670367277,93.65185185185184,77.0540670367277,95.64444444444445,77.05406703672769C97.63703703703703,77.0540670367277,99.62962962962962,77.0540670367277,101.62222222222222,79.05655745057814C103.61481481481482,81.05904786442859,105.60740740740741,85.0640286921295,107.6,86.0903154710521C109.5925925925926,87.11660224997469,111.5851851851852,85.16419498011898,113.57777777777778,83.16170456626853C115.57037037037037,81.15921415241809,117.56296296296296,79.1066405945729,119.55555555555554,78.08035381565028C121.54814814814813,77.0540670367277,123.54074074074073,77.0540670367277,125.53333333333333,78.08035381565028C127.52592592592592,79.1066405945729,129.5185185185185,81.15921415241809,131.51111111111112,82.18550093134067C133.5037037037037,83.21178771026328,135.4962962962963,83.21178771026328,137.48888888888888,82.18550093134067C139.4814814814815,81.15921415241809,141.47407407407408,79.1066405945729,143.46666666666667,78.08035381565028C145.45925925925926,77.0540670367277,147.45185185185187,77.0540670367277,149.44444444444446,77.05406703672769C151.43703703703704,77.0540670367277,153.42962962962963,77.0540670367277,155.42222222222225,77.05406703672769C157.4148148148148,77.0540670367277,159.4074074074074,77.0540670367277,161.4,77.05406703672769C163.3925925925926,77.0540670367277,165.3851851851852,77.0540670367277,167.3777777777778,77.05406703672769C169.37037037037038,77.0540670367277,171.36296296296297,77.0540670367277,173.35555555555555,77.05406703672769C175.34814814814814,77.0540670367277,177.34074074074073,77.0540670367277,179.33333333333334,77.05406703672769C181.32592592592593,77.0540670367277,183.31851851851852,77.0540670367277,185.3111111111111,78.08035381565028C187.3037037037037,79.1066405945729,189.29629629629628,81.15921415241809,191.2888888888889,81.15921415241807C193.28148148148148,81.15921415241809,195.27407407407406,79.1066405945729,197.26666666666665,78.08035381565028C199.25925925925927,77.0540670367277,201.25185185185185,77.0540670367277,203.24444444444447,77.05406703672769C205.23703703703703,77.0540670367277,207.2296296296296,77.0540670367277,209.22222222222223,77.05406703672769C211.21481481481482,77.0540670367277,213.2074074074074,77.0540670367277,215.2,77.05406703672769C217.1925925925926,77.0540670367277,219.18518518518522,77.0540670367277,221.1777777777778,77.05406703672769C223.1703703703704,77.0540670367277,225.16296296296298,77.0540670367277,227.15555555555557,77.05406703672769C229.14814814814815,77.0540670367277,231.14074074074074,77.0540670367277,233.13333333333333,78.08035381565028C235.1259259259259,79.1066405945729,237.1185185185185,81.15921415241809,239.1111111111111,82.18550093134067C241.10370370370367,83.21178771026328,243.09629629629626,83.21178771026328,245.08888888888885,83.21178771026327C247.08148148148143,83.21178771026328,249.07407407407405,83.21178771026328,251.06666666666666,83.21178771026327C253.05925925925925,83.21178771026328,255.05185185185184,83.21178771026328,257.0444444444444,83.21178771026327C259.03703703703707,83.21178771026328,261.02962962962965,83.21178771026328,263.0222222222222,85.1187733815454C265.0148148148148,87.02575905282754,267.0074074074074,90.8397303953918,269,90.83973039539178C270.9925925925926,90.8397303953918,272.9851851851852,87.02575905282754,274.97777777777776,85.1187733815454C276.9703703703704,83.21178771026328,278.962962962963,83.21178771026328,280.9555555555556,83.21178771026327C282.94814814814816,83.21178771026328,284.94074074074075,83.21178771026328,286.93333333333334,83.21178771026327C288.9259259259259,83.21178771026328,290.91851851851857,83.21178771026328,292.91111111111115,83.21178771026327C294.90370370370374,83.21178771026328,296.8962962962963,83.21178771026328,298.8888888888889,84.18799134519112C300.8814814814815,85.16419498011898,302.8740740740741,87.11660224997469,304.8666666666667,88.09280588490255C306.85925925925926,89.0690095198304,308.85185185185185,89.0690095198304,310.8444444444445,89.0690095198304C312.837037037037,89.0690095198304,314.8296296296296,89.0690095198304,316.82222222222225,89.0690095198304C318.8148148148148,89.0690095198304,320.80740740740737,89.0690095198304,322.8,89.0690095198304C324.7925925925926,89.0690095198304,326.78518518518524,89.0690095198304,328.7777777777778,89.0690095198304C330.7703703703704,89.0690095198304,332.762962962963,89.0690095198304,334.7555555555556,89.0690095198304C336.7481481481482,89.0690095198304,338.7407407407407,89.0690095198304,340.7333333333333,89.0690095198304C342.7259259259259,89.0690095198304,344.7185185185185,89.0690095198304,346.7111111111111,89.99979155618468C348.7037037037037,90.93057359253895,350.6962962962963,92.7921376652475,352.68888888888887,93.72291970160177C354.68148148148146,94.65370173795606,356.67407407407404,94.65370173795606,358.66666666666663,92.74671606667391C360.6592592592593,90.8397303953918,362.65185185185186,87.02575905282754,364.64444444444445,86.09497701647325C366.63703703703703,85.16419498011898,368.6296296296296,87.11660224997469,370.6222222222222,87.11660224997469C372.6148148148148,87.11660224997469,374.6074074074074,85.16419498011898,376.59999999999997,84.18799134519112C378.5925925925926,83.21178771026328,380.5851851851852,83.21178771026328,382.5777777777777,83.21178771026327C384.57037037037037,83.21178771026328,386.56296296296296,83.21178771026328,388.55555555555554,83.21178771026327C390.54814814814813,83.21178771026328,392.5407407407407,83.21178771026328,394.5333333333333,85.1187733815454C396.52592592592595,87.02575905282754,398.51851851851853,90.8397303953918,400.5111111111112,91.81593403031964C402.5037037037037,92.7921376652475,404.4962962962963,90.93057359253895,406.4888888888888,90.93057359253895C408.48148148148147,90.93057359253895,410.47407407407405,92.7921376652475,412.4666666666667,93.72291970160177C414.4592592592592,94.65370173795606,416.4518518518518,94.65370173795606,418.4444444444444,94.65370173795604C420.43703703703704,94.65370173795606,422.42962962962963,94.65370173795606,424.4222222222222,94.65370173795604C426.4148148148148,94.65370173795606,428.4074074074074,94.65370173795606,430.40000000000003,94.65370173795604C432.39259259259256,94.65370173795606,434.38518518518515,94.65370173795606,436.3777777777778,95.54310174181553C438.3703703703704,96.43250174567503,440.362962962963,98.211301753394,442.3555555555556,98.211301753394C444.3481481481482,98.211301753394,446.3407407407408,96.43250174567503,448.33333333333337,96.43250174567503C450.32592592592596,96.43250174567503,452.31851851851854,98.211301753394,454.31111111111113,98.211301753394C456.3037037037037,98.211301753394,458.2962962962963,96.43250174567503,460.2888888888889,95.54310174181553C462.2814814814815,94.65370173795606,464.27407407407406,94.65370173795606,466.26666666666665,94.65370173795604C468.25925925925924,94.65370173795606,470.2518518518518,94.65370173795606,472.2444444444444,93.72291970160177C474.237037037037,92.7921376652475,476.2296296296296,90.93057359253895,478.2222222222222,84.55888587296738C480.21481481481476,78.1871981533958,482.20740740740735,67.30538678696118,484.19999999999993,61.86448110374388C486.1925925925925,56.423575420526575,488.1851851851851,56.423575420526575,490.1777777777777,56.423575420526575C492.1703703703703,56.423575420526575,494.1629629629629,56.423575420526575,496.1555555555555,57.636565316969865C498.14814814814815,58.849555213413154,500.14074074074074,61.275535006299734,502.1333333333333,61.275535006299734C504.1259259259259,61.275535006299734,506.1185185185185,58.849555213413154,508.1111111111111,57.636565316969865C510.10370370370373,56.423575420526575,512.0962962962963,56.423575420526575,514.088888888889,56.423575420526575C516.0814814814814,56.423575420526575,518.0740740740741,56.423575420526575,520.0666666666666,57.636565316969865C522.0592592592593,58.849555213413154,524.0518518518518,61.275535006299734,526.0444444444445,62.48852490274302C528.037037037037,63.70151479918631,530.0296296296297,63.70151479918631,532.0222222222221,63.70151479918631C534.0148148148148,63.70151479918631,536.0074074074073,63.70151479918631,537.0037037037036,63.70151479918631L538,63.70151479918632"></path>
                            </g>
                        </g>
                        <g class="nv-scatterWrap" clip-path="">
                            <g class="nvd3 nv-wrap nv-scatter nv-chart-76608" transform="translate(0,0)">
                                <defs>
                                    <clipPath id="nv-edge-clip-76608">
                                        <rect width="538" height="110"></rect>
                                    </clipPath>
                                    <clipPath class="nv-point-clips" id="nv-points-clip-76608">
                                        <circle r="25" cx="5.97777780824484" cy="77.0540671064467"></circle>
                                        <circle r="25" cx="11.95555560924995" cy="77.05406711165034"></circle>
                                        <circle r="25" cx="17.93333339381755" cy="77.05406709081363"></circle>
                                        <circle r="25" cx="23.911111121586423" cy="70.5633386112468"></circle>
                                        <circle r="25" cx="29.888888897764655" cy="77.05406710037911"></circle>
                                        <circle r="25" cx="35.86666669881413" cy="83.2117877252566"></circle>
                                        <circle r="25" cx="41.8444445229682" cy="70.56333861120218"></circle>
                                        <circle r="25" cx="47.822222287378274" cy="77.0540671252936"></circle>
                                        <circle r="25" cx="53.80000004314862" cy="70.56333865173833"></circle>
                                        <circle r="25" cx="59.77777781499027" cy="70.56333865092412"></circle>
                                        <circle r="25" cx="65.75555562099609" cy="83.21178777402164"></circle>
                                        <circle r="25" cx="71.73333339540157" cy="89.0690095528176"></circle>
                                        <circle r="25" cx="77.71111119752328" cy="83.21178780946362"></circle>
                                        <circle r="25" cx="83.68888892559089" cy="77.0540670972775"></circle>
                                        <circle r="25" cx="89.66666668100896" cy="77.05406706857067"></circle>
                                        <circle r="25" cx="95.64444446339043" cy="77.05406704646451"></circle>
                                        <circle r="25" cx="101.62222224704996" cy="77.05406707476207"></circle>
                                        <circle r="25" cx="107.60000005346745" cy="89.06900955983656"></circle>
                                        <circle r="25" cx="113.5777777814258" cy="83.21178777839782"></circle>
                                        <circle r="25" cx="119.55555560632752" cy="77.05406711665216"></circle>
                                        <circle r="25" cx="125.53333339862905" cy="77.05406707445225"></circle>
                                        <circle r="25" cx="131.51111114317158" cy="83.21178774301262"></circle>
                                        <circle r="25" cx="137.48888894142004" cy="83.21178771701157"></circle>
                                        <circle r="25" cx="143.46666667731006" cy="77.05406704665815"></circle>
                                        <circle r="25" cx="149.44444448425034" cy="77.05406705919748"></circle>
                                        <circle r="25" cx="155.42222223451776" cy="77.0540670780011"></circle>
                                        <circle r="25" cx="161.40000005357976" cy="77.05406710199453"></circle>
                                        <circle r="25" cx="167.3777778774924" cy="77.0540670619262"></circle>
                                        <circle r="25" cx="173.35555562010856" cy="77.05406713082064"></circle>
                                        <circle r="25" cx="179.33333337962432" cy="77.05406704854765"></circle>
                                        <circle r="25" cx="185.3111111754415" cy="77.05406704081292"></circle>
                                        <circle r="25" cx="191.28888889687343" cy="83.2117877140384"></circle>
                                        <circle r="25" cx="197.26666671940322" cy="77.05406709817463"></circle>
                                        <circle r="25" cx="203.2444444993558" cy="77.05406708660684"></circle>
                                        <circle r="25" cx="209.22222228084513" cy="77.05406703835207"></circle>
                                        <circle r="25" cx="215.20000001909773" cy="77.05406709033876"></circle>
                                        <circle r="25" cx="221.17777780640878" cy="77.05406712988204"></circle>
                                        <circle r="25" cx="227.1555556244258" cy="77.05406708386282"></circle>
                                        <circle r="25" cx="233.13333339147866" cy="77.05406709531665"></circle>
                                        <circle r="25" cx="239.11111120145713" cy="83.21178778166599"></circle>
                                        <circle r="25" cx="245.08888891886997" cy="83.21178778233633"></circle>
                                        <circle r="25" cx="251.066666721578" cy="83.21178779376298"></circle>
                                        <circle r="25" cx="257.04444453442335" cy="83.21178777735493"></circle>
                                        <circle r="25" cx="263.02222229461756" cy="83.21178775133501"></circle>
                                        <circle r="25" cx="269.0000000542574" cy="94.65370183004175"></circle>
                                        <circle r="25" cx="274.97777780583846" cy="83.21178773371018"></circle>
                                        <circle r="25" cx="280.9555555718361" cy="83.21178779939093"></circle>
                                        <circle r="25" cx="286.9333333472614" cy="83.21178780593087"></circle>
                                        <circle r="25" cx="292.91111116329756" cy="83.21178774328453"></circle>
                                        <circle r="25" cx="298.8888889068752" cy="83.21178771518102"></circle>
                                        <circle r="25" cx="304.86666670237616" cy="89.06900952705836"></circle>
                                        <circle r="25" cx="310.8444444781573" cy="89.06900952818725"></circle>
                                        <circle r="25" cx="316.8222222558323" cy="89.06900959070339"></circle>
                                        <circle r="25" cx="322.8000000590081" cy="89.06900960994491"></circle>
                                        <circle r="25" cx="328.77777786778876" cy="89.06900955662122"></circle>
                                        <circle r="25" cx="334.75555560934646" cy="89.06900958854551"></circle>
                                        <circle r="25" cx="340.73333337000275" cy="89.06900954920344"></circle>
                                        <circle r="25" cx="346.7111112072605" cy="89.0690095789217"></circle>
                                        <circle r="25" cx="352.6888889686989" cy="94.65370173878391"></circle>
                                        <circle r="25" cx="358.6666667564883" cy="94.65370183617391"></circle>
                                        <circle r="25" cx="364.644444527652" cy="83.21178779381502"></circle>
                                        <circle r="25" cx="370.6222223178253" cy="89.06900960071772"></circle>
                                        <circle r="25" cx="376.600000034134" cy="83.21178771512332"></circle>
                                        <circle r="25" cx="382.5777777869462" cy="83.21178772949445"></circle>
                                        <circle r="25" cx="388.5555556205217" cy="83.21178773767691"></circle>
                                        <circle r="25" cx="394.533333370828" cy="83.21178773813118"></circle>
                                        <circle r="25" cx="400.51111118680126" cy="94.65370179603475"></circle>
                                        <circle r="25" cx="406.48888898716984" cy="89.06900954395903"></circle>
                                        <circle r="25" cx="412.4666666959553" cy="94.65370181643803"></circle>
                                        <circle r="25" cx="418.444444500019" cy="94.65370175631166"></circle>
                                        <circle r="25" cx="424.42222223540267" cy="94.65370182807244"></circle>
                                        <circle r="25" cx="430.4000000667911" cy="94.65370177919964"></circle>
                                        <circle r="25" cx="436.37777781866663" cy="94.65370176698676"></circle>
                                        <circle r="25" cx="442.35555565511146" cy="99.9901018346924"></circle>
                                        <circle r="25" cx="448.33333336480763" cy="94.6537017754174"></circle>
                                        <circle r="25" cx="454.3111111351781" cy="99.99010184504264"></circle>
                                        <circle r="25" cx="460.2888889207095" cy="94.65370179685735"></circle>
                                        <circle r="25" cx="466.2666667161859" cy="94.65370178399694"></circle>
                                        <circle r="25" cx="472.24444452626824" cy="94.6537017785503"></circle>
                                        <circle r="25" cx="478.22222229193005" cy="89.06900955330308"></circle>
                                        <circle r="25" cx="484.20000004995325" cy="56.42357551697551"></circle>
                                        <circle r="25" cx="490.17777779626" cy="56.42357551845514"></circle>
                                        <circle r="25" cx="496.15555557677845" cy="56.423575420611115"></circle>
                                        <circle r="25" cx="502.13333334396435" cy="63.70151489491301"></circle>
                                        <circle r="25" cx="508.111111146224" cy="56.42357549419498"></circle>
                                        <circle r="25" cx="514.0888889497701" cy="56.42357549784083"></circle>
                                        <circle r="25" cx="520.0666666949339" cy="56.42357546568772"></circle>
                                        <circle r="25" cx="526.044444476041" cy="63.701514871041105"></circle>
                                        <circle r="25" cx="532.0222222973656" cy="63.701514800471564"></circle>
                                        <circle r="25" cx="538.0000000766614" cy="63.70151487624664"></circle>
                                    </clipPath>
                                </defs>
                                <g clip-path="">
                                    <g class="nv-groups">
                                        <g class="nv-group nv-series-0" style="stroke-opacity: 1; fill-opacity: 0.5; stroke: rgb(255, 127, 14); fill: rgb(255, 127, 14);">
                                            <circle cx="5.977777777777778" cy="77.0540670367277" r="2.256758334191025" class="nv-point nv-point-0"></circle>
                                            <circle cx="11.955555555555556" cy="77.0540670367277" r="2.256758334191025" class="nv-point nv-point-1"></circle>
                                            <circle cx="17.933333333333334" cy="77.0540670367277" r="2.256758334191025" class="nv-point nv-point-2"></circle>
                                            <circle cx="23.91111111111111" cy="70.56333856721044" r="2.256758334191025" class="nv-point nv-point-3"></circle>
                                            <circle cx="29.88888888888889" cy="77.0540670367277" r="2.256758334191025" class="nv-point nv-point-4"></circle>
                                            <circle cx="35.86666666666667" cy="83.21178771026328" r="2.256758334191025" class="nv-point nv-point-5"></circle>
                                            <circle cx="41.84444444444445" cy="70.56333856721044" r="2.256758334191025" class="nv-point nv-point-6"></circle>
                                            <circle cx="47.82222222222222" cy="77.0540670367277" r="2.256758334191025" class="nv-point nv-point-7"></circle>
                                            <circle cx="53.800000000000004" cy="70.56333856721044" r="2.256758334191025" class="nv-point nv-point-8"></circle>
                                            <circle cx="59.77777777777778" cy="70.56333856721044" r="2.256758334191025" class="nv-point nv-point-9"></circle>
                                            <circle cx="65.75555555555556" cy="83.21178771026328" r="2.256758334191025" class="nv-point nv-point-10"></circle>
                                            <circle cx="71.73333333333333" cy="89.0690095198304" r="2.256758334191025" class="nv-point nv-point-11"></circle>
                                            <circle cx="77.71111111111112" cy="83.21178771026328" r="2.256758334191025" class="nv-point nv-point-12"></circle>
                                            <circle cx="83.6888888888889" cy="77.0540670367277" r="2.256758334191025" class="nv-point nv-point-13"></circle>
                                            <circle cx="89.66666666666667" cy="77.0540670367277" r="2.256758334191025" class="nv-point nv-point-14"></circle>
                                            <circle cx="95.64444444444445" cy="77.0540670367277" r="2.256758334191025" class="nv-point nv-point-15"></circle>
                                            <circle cx="101.62222222222222" cy="77.0540670367277" r="2.256758334191025" class="nv-point nv-point-16"></circle>
                                            <circle cx="107.60000000000001" cy="89.0690095198304" r="2.256758334191025" class="nv-point nv-point-17"></circle>
                                            <circle cx="113.57777777777778" cy="83.21178771026328" r="2.256758334191025" class="nv-point nv-point-18"></circle>
                                            <circle cx="119.55555555555556" cy="77.0540670367277" r="2.256758334191025" class="nv-point nv-point-19"></circle>
                                            <circle cx="125.53333333333333" cy="77.0540670367277" r="2.256758334191025" class="nv-point nv-point-20"></circle>
                                            <circle cx="131.51111111111112" cy="83.21178771026328" r="2.256758334191025" class="nv-point nv-point-21"></circle>
                                            <circle cx="137.4888888888889" cy="83.21178771026328" r="2.256758334191025" class="nv-point nv-point-22"></circle>
                                            <circle cx="143.46666666666667" cy="77.0540670367277" r="2.256758334191025" class="nv-point nv-point-23"></circle>
                                            <circle cx="149.44444444444446" cy="77.0540670367277" r="2.256758334191025" class="nv-point nv-point-24"></circle>
                                            <circle cx="155.42222222222225" cy="77.0540670367277" r="2.256758334191025" class="nv-point nv-point-25"></circle>
                                            <circle cx="161.4" cy="77.0540670367277" r="2.256758334191025" class="nv-point nv-point-26"></circle>
                                            <circle cx="167.3777777777778" cy="77.0540670367277" r="2.256758334191025" class="nv-point nv-point-27"></circle>
                                            <circle cx="173.35555555555555" cy="77.0540670367277" r="2.256758334191025" class="nv-point nv-point-28"></circle>
                                            <circle cx="179.33333333333334" cy="77.0540670367277" r="2.256758334191025" class="nv-point nv-point-29"></circle>
                                            <circle cx="185.3111111111111" cy="77.0540670367277" r="2.256758334191025" class="nv-point nv-point-30"></circle>
                                            <circle cx="191.2888888888889" cy="83.21178771026328" r="2.256758334191025" class="nv-point nv-point-31"></circle>
                                            <circle cx="197.26666666666668" cy="77.0540670367277" r="2.256758334191025" class="nv-point nv-point-32"></circle>
                                            <circle cx="203.24444444444444" cy="77.0540670367277" r="2.256758334191025" class="nv-point nv-point-33"></circle>
                                            <circle cx="209.22222222222223" cy="77.0540670367277" r="2.256758334191025" class="nv-point nv-point-34"></circle>
                                            <circle cx="215.20000000000002" cy="77.0540670367277" r="2.256758334191025" class="nv-point nv-point-35"></circle>
                                            <circle cx="221.1777777777778" cy="77.0540670367277" r="2.256758334191025" class="nv-point nv-point-36"></circle>
                                            <circle cx="227.15555555555557" cy="77.0540670367277" r="2.256758334191025" class="nv-point nv-point-37"></circle>
                                            <circle cx="233.13333333333335" cy="77.0540670367277" r="2.256758334191025" class="nv-point nv-point-38"></circle>
                                            <circle cx="239.11111111111111" cy="83.21178771026328" r="2.256758334191025" class="nv-point nv-point-39"></circle>
                                            <circle cx="245.08888888888887" cy="83.21178771026328" r="2.256758334191025" class="nv-point nv-point-40"></circle>
                                            <circle cx="251.06666666666666" cy="83.21178771026328" r="2.256758334191025" class="nv-point nv-point-41"></circle>
                                            <circle cx="257.0444444444445" cy="83.21178771026328" r="2.256758334191025" class="nv-point nv-point-42"></circle>
                                            <circle cx="263.02222222222224" cy="83.21178771026328" r="2.256758334191025" class="nv-point nv-point-43"></circle>
                                            <circle cx="269" cy="94.65370173795606" r="2.256758334191025" class="nv-point nv-point-44"></circle>
                                            <circle cx="274.9777777777778" cy="83.21178771026328" r="2.256758334191025" class="nv-point nv-point-45"></circle>
                                            <circle cx="280.9555555555556" cy="83.21178771026328" r="2.256758334191025" class="nv-point nv-point-46"></circle>
                                            <circle cx="286.93333333333334" cy="83.21178771026328" r="2.256758334191025" class="nv-point nv-point-47"></circle>
                                            <circle cx="292.91111111111115" cy="83.21178771026328" r="2.256758334191025" class="nv-point nv-point-48"></circle>
                                            <circle cx="298.8888888888889" cy="83.21178771026328" r="2.256758334191025" class="nv-point nv-point-49"></circle>
                                            <circle cx="304.8666666666667" cy="89.0690095198304" r="2.256758334191025" class="nv-point nv-point-50"></circle>
                                            <circle cx="310.8444444444445" cy="89.0690095198304" r="2.256758334191025" class="nv-point nv-point-51"></circle>
                                            <circle cx="316.82222222222225" cy="89.0690095198304" r="2.256758334191025" class="nv-point nv-point-52"></circle>
                                            <circle cx="322.8" cy="89.0690095198304" r="2.256758334191025" class="nv-point nv-point-53"></circle>
                                            <circle cx="328.7777777777778" cy="89.0690095198304" r="2.256758334191025" class="nv-point nv-point-54"></circle>
                                            <circle cx="334.7555555555556" cy="89.0690095198304" r="2.256758334191025" class="nv-point nv-point-55"></circle>
                                            <circle cx="340.7333333333333" cy="89.0690095198304" r="2.256758334191025" class="nv-point nv-point-56"></circle>
                                            <circle cx="346.7111111111111" cy="89.0690095198304" r="2.256758334191025" class="nv-point nv-point-57"></circle>
                                            <circle cx="352.68888888888887" cy="94.65370173795606" r="2.256758334191025" class="nv-point nv-point-58"></circle>
                                            <circle cx="358.6666666666667" cy="94.65370173795606" r="2.256758334191025" class="nv-point nv-point-59"></circle>
                                            <circle cx="364.64444444444445" cy="83.21178771026328" r="2.256758334191025" class="nv-point nv-point-60"></circle>
                                            <circle cx="370.6222222222222" cy="89.0690095198304" r="2.256758334191025" class="nv-point nv-point-61"></circle>
                                            <circle cx="376.6" cy="83.21178771026328" r="2.256758334191025" class="nv-point nv-point-62"></circle>
                                            <circle cx="382.5777777777778" cy="83.21178771026328" r="2.256758334191025" class="nv-point nv-point-63"></circle>
                                            <circle cx="388.55555555555554" cy="83.21178771026328" r="2.256758334191025" class="nv-point nv-point-64"></circle>
                                            <circle cx="394.53333333333336" cy="83.21178771026328" r="2.256758334191025" class="nv-point nv-point-65"></circle>
                                            <circle cx="400.5111111111111" cy="94.65370173795606" r="2.256758334191025" class="nv-point nv-point-66"></circle>
                                            <circle cx="406.4888888888889" cy="89.0690095198304" r="2.256758334191025" class="nv-point nv-point-67"></circle>
                                            <circle cx="412.4666666666667" cy="94.65370173795606" r="2.256758334191025" class="nv-point nv-point-68"></circle>
                                            <circle cx="418.44444444444446" cy="94.65370173795606" r="2.256758334191025" class="nv-point nv-point-69"></circle>
                                            <circle cx="424.4222222222223" cy="94.65370173795606" r="2.256758334191025" class="nv-point nv-point-70"></circle>
                                            <circle cx="430.40000000000003" cy="94.65370173795606" r="2.256758334191025" class="nv-point nv-point-71"></circle>
                                            <circle cx="436.3777777777778" cy="94.65370173795606" r="2.256758334191025" class="nv-point nv-point-72"></circle>
                                            <circle cx="442.3555555555556" cy="99.99010176111298" r="2.256758334191025" class="nv-point nv-point-73"></circle>
                                            <circle cx="448.33333333333337" cy="94.65370173795606" r="2.256758334191025" class="nv-point nv-point-74"></circle>
                                            <circle cx="454.31111111111113" cy="99.99010176111298" r="2.256758334191025" class="nv-point nv-point-75"></circle>
                                            <circle cx="460.28888888888895" cy="94.65370173795606" r="2.256758334191025" class="nv-point nv-point-76"></circle>
                                            <circle cx="466.2666666666667" cy="94.65370173795606" r="2.256758334191025" class="nv-point nv-point-77"></circle>
                                            <circle cx="472.2444444444444" cy="94.65370173795606" r="2.256758334191025" class="nv-point nv-point-78"></circle>
                                            <circle cx="478.22222222222223" cy="89.0690095198304" r="2.256758334191025" class="nv-point nv-point-79"></circle>
                                            <circle cx="484.2" cy="56.423575420526575" r="2.256758334191025" class="nv-point nv-point-80"></circle>
                                            <circle cx="490.17777777777775" cy="56.423575420526575" r="2.256758334191025" class="nv-point nv-point-81"></circle>
                                            <circle cx="496.15555555555557" cy="56.423575420526575" r="2.256758334191025" class="nv-point nv-point-82"></circle>
                                            <circle cx="502.1333333333333" cy="63.70151479918632" r="2.256758334191025" class="nv-point nv-point-83"></circle>
                                            <circle cx="508.11111111111114" cy="56.423575420526575" r="2.256758334191025" class="nv-point nv-point-84"></circle>
                                            <circle cx="514.088888888889" cy="56.423575420526575" r="2.256758334191025" class="nv-point nv-point-85"></circle>
                                            <circle cx="520.0666666666667" cy="56.423575420526575" r="2.256758334191025" class="nv-point nv-point-86"></circle>
                                            <circle cx="526.0444444444445" cy="63.70151479918632" r="2.256758334191025" class="nv-point nv-point-87"></circle>
                                            <circle cx="532.0222222222222" cy="63.70151479918632" r="2.256758334191025" class="nv-point nv-point-88"></circle>
                                            <circle cx="538" cy="63.70151479918632" r="2.256758334191025" class="nv-point nv-point-89"></circle>
                                        </g>
                                    </g>
                                    <g class="nv-point-paths" clip-path="url(#nv-points-clip-76608)">
                                        <path class="nv-path-0" d="M-10,77.52942058879242L6.1815974225696415,110L8.966667,111.36648681206617L8.966667000000001,57.292608887381604L-10,4.889310642391095Z"></path>
                                        <path class="nv-path-1" d="M8.966667000000001,57.292608887381604L8.966667,111.36648681206617L14.939342141486016,114.97129919592888L14.9444445,114.95148617406744L14.944444499999996,68.30333798880326Z"></path>
                                        <path class="nv-path-2" d="M14.944444499999996,68.30333798880326L14.9444445,114.95148617406744L23.911111,88.83756753255848L23.911111,76.56138573584134Z"></path>
                                        <path class="nv-path-3" d="M-10,-10.000000000103418L-10,4.889310642445112L8.966667000000001,57.292608887381604L14.944444499999996,68.30333798880326L23.911111,76.56138573584134L32.877778,68.30333752831731L32.877778000000134,-10Z"></path>
                                        <path class="nv-path-4" d="M23.911111,76.56138573584134L23.911111,88.83756753255848L37.083523309736364,76.05008389826078L32.877778,68.30333752831731Z"></path>
                                        <path class="nv-path-5" d="M14.939342141486016,114.97129919592888L19.150868118245107,120L48.27054265126227,120L50.811111499999996,104.44284093249652L50.8111115,97.54220610895047L40.59675588180305,77.71047122149572L37.083523309736364,76.05008389826078L23.911111,88.83756753255848L14.9444445,114.95148617406744Z"></path>
                                        <path class="nv-path-6" d="M32.877778000000134,-10L32.877778,68.30333752831731L37.083523309736364,76.05008389826078L40.59675588180305,77.71047122149572L47.822222499999995,71.05602072464461L47.82222249999995,-10Z"></path>
                                        <path class="nv-path-7" d="M40.59675588180305,77.71047122149572L50.8111115,97.54220610895047L56.961125297977354,79.63131804764718L56.788889,79.31406847168269L47.822222499999995,71.05602072464461Z"></path>
                                        <path class="nv-path-8" d="M47.82222249999995,-9.999999999999773L47.822222499999995,71.05602072464461L56.788889,79.31406847168269L56.78888900000002,-10Z"></path>
                                        <path class="nv-path-9" d="M56.78888900000002,-10L56.788889,79.31406847168269L56.961125297977354,79.63131804764718L71.7333335,72.64983113162526L72.24473765532922,71.92474768344101L86.67777799999998,18.75505242754666L92.6555555,-8.771771707465277L92.87782583225635,-10Z"></path>
                                        <path class="nv-path-10" d="M50.8111115,97.54220610895047L50.811111499999996,104.44284093249652L71.7333335,83.08999184115352L71.7333335,72.64983113162526L56.961125297977354,79.63131804764718Z"></path>
                                        <path class="nv-path-11" d="M48.27054265126227,120L89.66666649999999,120L89.66666649999999,101.39243683539723L71.7333335,83.08999184115352L50.811111499999996,104.44284093249652Z"></path>
                                        <path class="nv-path-12" d="M71.7333335,72.64983113162526L71.7333335,83.08999184115352L89.66666649999999,101.39243683539723L91.03700765099317,94.39970639865314L86.67777799999999,85.93602085503898L72.24473765532922,71.92474768344101Z"></path>
                                        <path class="nv-path-13" d="M72.24473765532922,71.92474768344101L86.67777799999999,85.93602085503898L86.67777799999998,18.75505242754666Z"></path>
                                        <path class="nv-path-14" d="M86.67777799999998,18.75505242754666L86.67777799999999,85.93602085503898L91.03700765099317,94.39970639865314L92.65555549999999,91.98388490431287L92.6555555,-8.771771707465277Z"></path>
                                        <path class="nv-path-15" d="M92.87782583225635,-10L92.6555555,-8.771771707465277L92.65555549999999,91.98388490431287L98.633333,86.03565413394716L98.63333300000002,-9.999999999999986Z"></path>
                                        <path class="nv-path-16" d="M98.63333300000002,-10L98.633333,86.03565413394716L106.60171293455245,82.0711570682175L110.588889,74.32983414496101L110.588889,-10.000000000000014Z"></path>
                                        <path class="nv-path-17" d="M89.66666649999999,101.39243683539723L89.66666649999999,120L127.84974140748132,120L122.5444445,98.34202916625955L106.60171293455245,82.0711570682175L98.633333,86.03565413394716L92.65555549999999,91.98388490431287L91.03700765099317,94.39970639865314Z"></path>
                                        <path class="nv-path-18" d="M106.60171293455245,82.0711570682175L122.5444445,98.34202916625955L122.5444445,85.93602036965017L110.588889,74.32983414496101Z"></path>
                                        <path class="nv-path-19" d="M110.588889,-10L110.588889,74.32983414496101L122.5444445,85.93602036965017L122.54444449999997,-10Z"></path>
                                        <path class="nv-path-20" d="M122.54444449999997,-10.000000000000028L122.5444445,85.93602036965017L134.5,74.32983414496101L134.5,-10Z"></path>
                                        <path class="nv-path-21" d="M122.5444445,85.93602036965017L122.5444445,98.34202916625955L127.84974140748132,120L134.5,120L134.5,74.32983414496101Z"></path>
                                        <path class="nv-path-22" d="M134.5,74.32983414496101L134.5,120L159.71123258616515,120L158.411111,114.9514842325122L152.433333,97.5422051381729L146.4555555,85.93602036965017Z"></path>
                                        <path class="nv-path-23" d="M134.5,-10L134.5,74.32983414496101L146.4555555,85.93602036965017L146.4555555,-9.999999999999986Z"></path>
                                        <path class="nv-path-24" d="M146.4555555,-10.000000000000057L146.4555555,85.93602036965017L152.433333,97.5422051381729L152.43333299999998,-9.999999999999986Z"></path>
                                        <path class="nv-path-25" d="M152.43333299999998,-10.000000000000114L152.433333,97.5422051381729L158.411111,114.9514842325122L158.411111,-9.999999999999986Z"></path>
                                        <path class="nv-path-26" d="M158.411111,-10.000000000000114L158.411111,114.9514842325122L159.71123258616515,120L164.388889,120L164.38888900000003,-10Z"></path>
                                        <path class="nv-path-27" d="M164.38888900000003,-10L164.388889,120L169.06654541383486,120L170.366667,114.95148423251217L170.36666700000023,-9.999999999999972Z"></path>
                                        <path class="nv-path-28" d="M170.36666700000023,-10.000000000000114L170.366667,114.95148423251217L176.34444449999998,97.5422065943393L176.34444450000026,-10Z"></path>
                                        <path class="nv-path-29" d="M176.34444450000026,-10.000000000000114L176.34444449999998,97.5422065943393L182.32222199999998,85.93602085503899L182.32222200000018,-10Z"></path>
                                        <path class="nv-path-30" d="M182.32222200000018,-10L182.32222199999998,85.93602085503899L191.28888899999998,77.2313808224805L191.28888899999973,-10Z"></path>
                                        <path class="nv-path-31" d="M169.06654541383486,120L213.51123258616514,120L212.211111,114.9514842325122L206.233333,97.5422051381729L200.25555549999999,85.93602036965017L191.28888899999998,77.2313808224805L182.32222199999998,85.93602085503899L176.34444449999998,97.5422065943393L170.366667,114.95148423251217Z"></path>
                                        <path class="nv-path-32" d="M191.28888899999973,-10L191.28888899999998,77.2313808224805L200.25555549999999,85.93602036965017L200.25555550000007,-10Z"></path>
                                        <path class="nv-path-33" d="M200.25555550000007,-9.999999999999886L200.25555549999999,85.93602036965017L206.233333,97.5422051381729L206.23333300000016,-9.999999999999986Z"></path>
                                        <path class="nv-path-34" d="M206.23333300000016,-10.000000000000114L206.233333,97.5422051381729L212.211111,114.9514842325122L212.2111110000003,-10Z"></path>
                                        <path class="nv-path-35" d="M212.2111110000003,-10L212.211111,114.9514842325122L213.51123258616514,120L216.88876741383484,120L218.188889,114.9514842325122L218.18888899999973,-9.999999999999986Z"></path>
                                        <path class="nv-path-36" d="M218.18888899999973,-10L218.188889,114.9514842325122L224.166667,97.5422051381729L224.16666700000022,-10.000000000000014Z"></path>
                                        <path class="nv-path-37" d="M224.16666700000022,-9.999999999999886L224.166667,97.5422051381729L230.1444445,85.93602036965017L230.1444444999997,-10Z"></path>
                                        <path class="nv-path-38" d="M230.1444444999997,-10L230.1444445,85.93602036965017L242.1,74.32983414496101L248.077778,62.723647434883034L254.055556,45.31436736976605L260.0333335,22.10199589116541L266.6469996767837,-10Z"></path>
                                        <path class="nv-path-39" d="M216.88876741383484,120L242.1,120L242.1,74.32983414496101L230.1444445,85.93602036965017L224.166667,97.5422051381729L218.188889,114.9514842325122Z"></path>
                                        <path class="nv-path-40" d="M242.1,74.32983414496101L242.1,120L242.1781817016687,120L248.077778,107.67112723058499L248.077778,62.723647434883034Z"></path>
                                        <path class="nv-path-41" d="M248.077778,62.723647434883034L248.077778,107.67112723058499L254.055556,98.30193572345829L254.055556,45.31436736976605Z"></path>
                                        <path class="nv-path-42" d="M254.055556,45.31436736976605L254.055556,98.30193572345829L260.0333335,92.05580874863462L260.0333335,22.10199589116541Z"></path>
                                        <path class="nv-path-43" d="M266.6469996767837,-10L260.0333335,22.10199589116541L260.0333335,92.05580874863462L269,87.37121299507128L269,-10Z"></path>
                                        <path class="nv-path-44" d="M291.3147180328212,120.00000000000001L289.22483087553746,106.57808044958043L283.9444445,98.3019365071267L277.96666700000003,92.05580900985744L269,87.37121299507128L260.0333335,92.05580874863462L254.055556,98.30193572345829L248.077778,107.67112723058499L242.1781817016687,120Z"></path>
                                        <path class="nv-path-45" d="M269,-10L269,87.37121299507128L277.96666700000003,92.05580900985744L277.96666700000003,-10Z"></path>
                                        <path class="nv-path-46" d="M277.96666700000003,-10L277.96666700000003,92.05580900985744L283.9444445,98.3019365071267L283.9444445,-10Z"></path>
                                        <path class="nv-path-47" d="M283.9444445,-10.000000000000014L283.9444445,98.3019365071267L289.22483087553746,106.57808044958043L289.92222200000003,104.44284501482616L289.92222200000003,-10Z"></path>
                                        <path class="nv-path-48" d="M289.92222200000003,-10L289.92222200000003,104.44284501482616L295.9,92.24121433827538L295.9,-9.999999999999986Z"></path>
                                        <path class="nv-path-49" d="M295.9,-10L295.9,92.24121433827538L307.8555555,80.03958417201584L313.83333300000004,67.83795553662986L319.81111100000004,49.53551054238616L325.78888900000004,25.13225020986706L331.766667,-5.3718254609272975L331.766667,-10Z"></path>
                                        <path class="nv-path-50" d="M289.22483087553746,106.57808044958043L291.3147180328212,120L307.8555555,120L307.8555555,80.03958417201584L295.9,92.24121433827538L289.92222200000003,104.44284501482616Z"></path>
                                        <path class="nv-path-51" d="M307.8555555,80.03958417201584L307.8555555,120L313.83333300000004,120L313.83333300000004,67.83795553662986Z"></path>
                                        <path class="nv-path-52" d="M313.83333300000004,67.83795553662986L313.83333300000004,120L319.811111,120L319.81111100000004,49.53551054238616Z"></path>
                                        <path class="nv-path-53" d="M319.81111100000004,49.53551054238616L319.811111,120L325.78888900000004,120L325.78888900000004,25.13225020986706Z"></path>
                                        <path class="nv-path-54" d="M325.78888900000004,25.13225020986706L325.78888900000004,119.99999999999997L331.766667,120L331.766667,-5.3718254609272975Z"></path>
                                        <path class="nv-path-55" d="M331.766667,-5.3718254609272975L331.766667,120L334.95945319004244,120L337.7444445,111.05695057783412L337.7444445,25.132247658411117Z"></path>
                                        <path class="nv-path-56" d="M337.7444445,25.132247658411117L337.7444445,111.05695057783412L343.722222,98.25988788274017L343.722222,49.53550697034765Z"></path>
                                        <path class="nv-path-57" d="M343.722222,49.53550697034765L343.722222,98.25988788274017L355.5138010010247,85.63834285615899Z"></path>
                                        <path class="nv-path-58" d="M355.67777799999993,119.99999999999989L355.67777799999993,85.80968099014255L355.5138010010247,85.63834285615899L343.722222,98.25988788274017L337.7444445,111.05695057783412L334.95945319004244,120Z"></path>
                                        <path class="nv-path-59" d="M355.67777799999993,85.80968099014255L355.67777799999993,120L377.78859883140893,120L363.79969595615296,90.05294155617167Z"></path>
                                        <path class="nv-path-60" d="M331.766667,-10L331.766667,-5.3718254609272975L337.7444445,25.132247658411117L343.722222,49.53550697034765L355.5138010010247,85.63834285615899L355.67777799999993,85.80968099014255L363.79969595615296,90.05294155617167L370.62222249999996,83.08999184115352L370.6222225000001,-10Z"></path>
                                        <path class="nv-path-61" d="M363.79969595615296,90.05294155617167L377.78859883140893,120L380.30900503129675,120L383.8648777891227,100.96921259815508L379.588889,92.24121433827538L370.62222249999996,83.08999184115352Z"></path>
                                        <path class="nv-path-62" d="M370.6222225000001,-10L370.62222249999996,83.08999184115352L379.588889,92.24121433827538L379.58888900000017,-10Z"></path>
                                        <path class="nv-path-63" d="M379.58888900000017,-9.999999999999986L379.588889,92.24121433827538L383.8648777891227,100.96921259815508L385.56666699999994,98.30193572345829L385.56666699999994,-10Z"></path>
                                        <path class="nv-path-64" d="M385.56666699999994,-10L385.56666699999994,98.30193572345829L391.5444445,92.05580874863462L391.54444449999994,-9.999999999999986Z"></path>
                                        <path class="nv-path-65" d="M415.5208711972195,-10L391.54444449999994,-10L391.5444445,92.05580874863462L399.70068209729425,87.79461803597252L427.6771516696846,30.690030117841822Z"></path>
                                        <path class="nv-path-66" d="M380.30900503129675,120L406.488889,120.00000000000001L406.488889,95.06062194137007L399.70068209729425,87.79461803597252L391.5444445,92.05580874863462L385.56666699999994,98.30193572345829L383.8648777891227,100.96921259815508Z"></path>
                                        <path class="nv-path-67" d="M399.70068209729425,87.79461803597252L406.488889,95.06062194137007L415.455556,85.46282411725981L421.4333335,72.66576142216582L427.411111,53.47016844991102L430.9255846166981,38.42279094808294L427.6771516696846,30.690030117841822Z"></path>
                                        <path class="nv-path-68" d="M406.488889,95.06062194137007L406.488889,120L415.455556,120L415.455556,85.46282411725981Z"></path>
                                        <path class="nv-path-69" d="M415.455556,85.46282411725981L415.455556,120L421.4333335,120L421.4333335,72.66576142216582Z"></path>
                                        <path class="nv-path-70" d="M421.4333335,72.66576142216582L421.4333335,120L426.64059544972093,120L427.41111099999995,117.41063025347651L427.411111,53.47016844991102Z"></path>
                                        <path class="nv-path-71" d="M427.411111,53.47016844991102L427.41111099999995,117.41063025347651L433.38888899999995,104.01814475115883L433.388889,41.88931825750491L430.9255846166981,38.42279094808294Z"></path>
                                        <path class="nv-path-72" d="M433.388889,41.88931825750491L433.38888899999995,104.01814475115883L442.3555555,93.9737811845152L442.3555554999999,53.105758296519234Z"></path>
                                        <path class="nv-path-73" d="M448.3333335,120.00000000000045L448.3333335,100.67002281548478L442.3555555,93.9737811845152L433.38888899999995,104.01814475115883L427.41111099999995,117.41063025347651L426.64059544972093,120Z"></path>
                                        <path class="nv-path-74" d="M442.3555554999999,53.105758296519234L442.3555555,93.9737811845152L448.3333335,100.67002281548478L454.311111,93.97378062442057L454.311111,64.32219864825963Z"></path>
                                        <path class="nv-path-75" d="M448.3333335,100.67002281548478L448.3333335,120L470.02607155026635,120L469.255556,117.41063025347651L463.277778,104.01814475115883L454.311111,93.97378062442057Z"></path>
                                        <path class="nv-path-76" d="M454.311111,64.32219864825963L454.311111,93.97378062442057L463.277778,104.01814475115883L463.27777799999996,72.6657630277452L462.2199070601353,69.26877142362162Z"></path>
                                        <path class="nv-path-77" d="M463.27777799999996,72.6657630277452L463.277778,104.01814475115883L469.255556,117.41063025347651L469.25555599999996,85.46282572283923Z"></path>
                                        <path class="nv-path-78" d="M501.5216443616544,120L469.25555599999996,85.46282572283923L469.255556,117.41063025347651L470.0260715502791,120Z"></path>
                                        <path class="nv-path-79" d="M462.2199070601353,69.26877142362162L463.27777799999996,72.6657630277452L469.25555599999996,85.46282572283923L501.5216443616544,120L525.2689504846405,120L514.0888885,98.92360257868421L487.6624210297288,74.01431622543791L487.188889,73.84089721991276Z"></path>
                                        <path class="nv-path-80" d="M415.5208711972195,-10L427.6771516696846,30.690030117841822L430.9255846166981,38.42279094808294L433.388889,41.88931825750491L442.3555554999999,53.105758296519234L454.311111,64.32219864825963L462.2199070601353,69.26877142362162L487.188889,73.84089721991276L487.188889,-10Z"></path>
                                        <path class="nv-path-81" d="M492.29922389121197,-10L487.188889,-10L487.188889,73.84089721991276L487.6624210297288,74.01431622543791L493.1666684301049,64.97242503497823L493.1666560170276,-9.230196003822192Z"></path>
                                        <path class="nv-path-82" d="M493.1666560170276,-9.230196003822192L493.1666684301049,64.97242503497823L502.1333335,57.60760418985963L502.13333349999994,-1.974068775257443Z"></path>
                                        <path class="nv-path-83" d="M487.6624210297288,74.01431622543791L514.0888885,98.92360257868421L514.0888884999999,69.88230906191725L511.1,64.97242744163651L502.1333335,57.60760418985963L493.1666684301049,64.97242503497823Z"></path>
                                        <path class="nv-path-84" d="M502.13333349999994,-1.974068775257443L502.1333335,57.60760418985963L511.1,64.97242744163651L511.09999999999997,8.139553479236262L505.15736141733936,0Z"></path>
                                        <path class="nv-path-85" d="M511.09999999999997,8.139553479236262L511.1,64.97242744163651L514.0888884999999,69.88230906191725L517.077778,64.97242620960297L517.077778,15.346173732502335Z"></path>
                                        <path class="nv-path-86" d="M517.077778,15.346173732502335L517.077778,64.97242620960297L529.033333,55.15266379039703L535.011111,45.332899728479774L538.2374697165556,37.382935144896535Z"></path>
                                        <path class="nv-path-87" d="M514.0888884999999,69.88230906191725L514.0888885,98.92360257868421L525.2689504846405,120L529.033333,120L529.033333,55.15266379039703L517.077778,64.97242620960297Z"></path>
                                        <path class="nv-path-88" d="M529.033333,55.15266379039703L529.033333,120L535.011111,120L535.011111,45.332899728479774Z"></path>
                                        <path class="nv-path-89" d="M535.011111,45.332899728479774L535.011111,120L548,120L548,41.85075749999709L538.2374697165556,37.382935144896535Z"></path>
                                        <path class="nv-path-90" d="M-10,110L6.1815974225696415,110L-10,77.52942058877592Z"></path>
                                        <path class="nv-path-91" d="M548,0L505.15736141733936,0L511.09999999999997,8.139553479236262L517.077778,15.346173732502335L538.2374697165556,37.382935144896535L548,41.85075749999999Z"></path>
                                        <path class="nv-path-92" d="M-9.999999999999998,120L19.150868118245107,120L14.939342141486016,114.97129919592888L8.966667,111.36648681206617L6.1815974225696415,110L-10,110Z"></path>
                                        <path class="nv-path-93" d="M548,-10L492.29922389121197,-10L493.1666560170276,-9.230196003822192L502.13333349999994,-1.974068775257443L505.15736141733936,0L548,0Z"></path>
                                    </g>
                                </g>
                            </g>
                        </g>
                    </g>
                </g>
            </g>
            <g class="nv-legendWrap" transform="translate(0,-30)">
                <g class="nvd3 nv-legend" transform="translate(0,5)">
                    <g transform="translate(430,5)">
                        <g class="nv-series" transform="translate(0,5)">
                            <circle class="nv-legend-symbol" r="5" style="stroke-width: 2; fill: rgb(255, 127, 14); stroke: rgb(255, 127, 14);"></circle>
                            <text text-anchor="start" class="nv-legend-text" dy=".32em" dx="8">Performance Rank</text>
                        </g>
                    </g>
                </g>
            </g>
            <g class="nv-interactive"></g>
        </g>
    </g>
</svg>